<mxfile host="app.diagrams.net" modified="2024-07-10T06:05:31.108Z" agent="Mozilla/5.0 (Windows NT 10.0; Win64; x64) AppleWebKit/537.36 (KHTML, like Gecko) Chrome/126.0.0.0 Safari/537.36 Edg/126.0.0.0" etag="kzgqGHtNJc0csw0kAxYS" version="24.6.4" type="device">
  <diagram id="C5RBs43oDa-KdzZeNtuy" name="Page-1">
    <mxGraphModel dx="2384" dy="1347" grid="1" gridSize="10" guides="1" tooltips="1" connect="1" arrows="1" fold="1" page="1" pageScale="1" pageWidth="1600" pageHeight="1200" math="0" shadow="0">
      <root>
        <mxCell id="WIyWlLk6GJQsqaUBKTNV-0" />
        <mxCell id="WIyWlLk6GJQsqaUBKTNV-1" parent="WIyWlLk6GJQsqaUBKTNV-0" />
        <mxCell id="HDoZhAlOHdr3i28oka9N-3" value="" style="rounded=1;whiteSpace=wrap;html=1;movable=1;resizable=1;rotatable=1;deletable=1;editable=1;locked=0;connectable=1;" vertex="1" parent="WIyWlLk6GJQsqaUBKTNV-1">
          <mxGeometry x="310" y="230" width="1210" height="870" as="geometry" />
        </mxCell>
        <mxCell id="HDoZhAlOHdr3i28oka9N-4" value="VPC" style="text;strokeColor=none;fillColor=none;html=1;fontSize=24;fontStyle=1;verticalAlign=middle;align=center;" vertex="1" parent="WIyWlLk6GJQsqaUBKTNV-1">
          <mxGeometry x="865" y="190" width="100" height="40" as="geometry" />
        </mxCell>
        <mxCell id="HDoZhAlOHdr3i28oka9N-10" value="" style="rounded=1;whiteSpace=wrap;html=1;movable=1;resizable=1;rotatable=1;deletable=1;editable=1;locked=0;connectable=1;" vertex="1" parent="WIyWlLk6GJQsqaUBKTNV-1">
          <mxGeometry x="600" y="300" width="870" height="240" as="geometry" />
        </mxCell>
        <mxCell id="HDoZhAlOHdr3i28oka9N-11" value="" style="rounded=1;whiteSpace=wrap;html=1;movable=1;resizable=1;rotatable=1;deletable=1;editable=1;locked=0;connectable=1;" vertex="1" parent="WIyWlLk6GJQsqaUBKTNV-1">
          <mxGeometry x="600" y="608.75" width="870" height="410" as="geometry" />
        </mxCell>
        <mxCell id="HDoZhAlOHdr3i28oka9N-60" style="edgeStyle=orthogonalEdgeStyle;rounded=0;orthogonalLoop=1;jettySize=auto;html=1;exitX=0.5;exitY=0;exitDx=0;exitDy=0;entryX=1;entryY=0.5;entryDx=0;entryDy=0;strokeWidth=2;" edge="1" parent="WIyWlLk6GJQsqaUBKTNV-1" source="HDoZhAlOHdr3i28oka9N-12" target="HDoZhAlOHdr3i28oka9N-19">
          <mxGeometry relative="1" as="geometry" />
        </mxCell>
        <mxCell id="HDoZhAlOHdr3i28oka9N-12" value="&lt;b&gt;&lt;font style=&quot;font-size: 18px;&quot;&gt;Router&lt;/font&gt;&lt;/b&gt;" style="ellipse;whiteSpace=wrap;html=1;aspect=fixed;" vertex="1" parent="WIyWlLk6GJQsqaUBKTNV-1">
          <mxGeometry x="657.5" y="520" width="110" height="110" as="geometry" />
        </mxCell>
        <mxCell id="HDoZhAlOHdr3i28oka9N-13" value="Public Subnet" style="text;strokeColor=none;fillColor=none;html=1;fontSize=24;fontStyle=1;verticalAlign=middle;align=center;" vertex="1" parent="WIyWlLk6GJQsqaUBKTNV-1">
          <mxGeometry x="920" y="260" width="215" height="40" as="geometry" />
        </mxCell>
        <mxCell id="HDoZhAlOHdr3i28oka9N-14" value="Private Subnet" style="text;strokeColor=none;fillColor=none;html=1;fontSize=24;fontStyle=1;verticalAlign=middle;align=center;" vertex="1" parent="WIyWlLk6GJQsqaUBKTNV-1">
          <mxGeometry x="927.5" y="568.75" width="215" height="40" as="geometry" />
        </mxCell>
        <mxCell id="HDoZhAlOHdr3i28oka9N-16" value="&lt;b&gt;Internet Gateway&lt;/b&gt;" style="rounded=0;whiteSpace=wrap;html=1;" vertex="1" parent="WIyWlLk6GJQsqaUBKTNV-1">
          <mxGeometry x="270" y="635" width="120" height="60" as="geometry" />
        </mxCell>
        <mxCell id="HDoZhAlOHdr3i28oka9N-29" style="edgeStyle=orthogonalEdgeStyle;rounded=0;orthogonalLoop=1;jettySize=auto;html=1;strokeWidth=2;exitX=0.087;exitY=0;exitDx=0;exitDy=0;exitPerimeter=0;" edge="1" parent="WIyWlLk6GJQsqaUBKTNV-1" source="HDoZhAlOHdr3i28oka9N-18" target="HDoZhAlOHdr3i28oka9N-12">
          <mxGeometry relative="1" as="geometry">
            <mxPoint x="693" y="710" as="sourcePoint" />
            <Array as="points" />
          </mxGeometry>
        </mxCell>
        <mxCell id="HDoZhAlOHdr3i28oka9N-71" style="edgeStyle=orthogonalEdgeStyle;rounded=0;orthogonalLoop=1;jettySize=auto;html=1;exitX=1;exitY=0.5;exitDx=0;exitDy=0;entryX=0;entryY=0.5;entryDx=0;entryDy=0;startArrow=classic;startFill=1;strokeWidth=2;" edge="1" parent="WIyWlLk6GJQsqaUBKTNV-1" source="HDoZhAlOHdr3i28oka9N-62" target="HDoZhAlOHdr3i28oka9N-64">
          <mxGeometry relative="1" as="geometry" />
        </mxCell>
        <mxCell id="HDoZhAlOHdr3i28oka9N-62" value="" style="rounded=1;whiteSpace=wrap;html=1;" vertex="1" parent="WIyWlLk6GJQsqaUBKTNV-1">
          <mxGeometry x="620" y="670" width="470" height="335" as="geometry" />
        </mxCell>
        <mxCell id="HDoZhAlOHdr3i28oka9N-18" value="" style="rounded=0;whiteSpace=wrap;html=1;" vertex="1" parent="WIyWlLk6GJQsqaUBKTNV-1">
          <mxGeometry x="670" y="729.5" width="370" height="232.5" as="geometry" />
        </mxCell>
        <mxCell id="HDoZhAlOHdr3i28oka9N-45" style="edgeStyle=orthogonalEdgeStyle;rounded=0;orthogonalLoop=1;jettySize=auto;html=1;exitX=0;exitY=0.5;exitDx=0;exitDy=0;entryX=0.5;entryY=0;entryDx=0;entryDy=0;strokeWidth=3;" edge="1" parent="WIyWlLk6GJQsqaUBKTNV-1" source="HDoZhAlOHdr3i28oka9N-19" target="HDoZhAlOHdr3i28oka9N-16">
          <mxGeometry relative="1" as="geometry" />
        </mxCell>
        <mxCell id="HDoZhAlOHdr3i28oka9N-19" value="&lt;b&gt;NAT Gateway&lt;/b&gt;" style="rounded=0;whiteSpace=wrap;html=1;" vertex="1" parent="WIyWlLk6GJQsqaUBKTNV-1">
          <mxGeometry x="570" y="386.25" width="120" height="60" as="geometry" />
        </mxCell>
        <mxCell id="HDoZhAlOHdr3i28oka9N-20" value="&lt;b&gt;NGINX Ingress Controller&lt;/b&gt;" style="rounded=0;whiteSpace=wrap;html=1;" vertex="1" parent="WIyWlLk6GJQsqaUBKTNV-1">
          <mxGeometry x="700" y="803.25" width="180" height="85" as="geometry" />
        </mxCell>
        <mxCell id="HDoZhAlOHdr3i28oka9N-27" value="&lt;b&gt;&lt;font style=&quot;font-size: 24px;&quot;&gt;Internet&lt;/font&gt;&lt;/b&gt;" style="ellipse;whiteSpace=wrap;html=1;aspect=fixed;" vertex="1" parent="WIyWlLk6GJQsqaUBKTNV-1">
          <mxGeometry x="80" y="595" width="140" height="140" as="geometry" />
        </mxCell>
        <mxCell id="HDoZhAlOHdr3i28oka9N-31" value="&lt;b&gt;POD&lt;/b&gt;" style="ellipse;whiteSpace=wrap;html=1;aspect=fixed;" vertex="1" parent="WIyWlLk6GJQsqaUBKTNV-1">
          <mxGeometry x="920" y="747" width="92" height="92" as="geometry" />
        </mxCell>
        <mxCell id="HDoZhAlOHdr3i28oka9N-32" value="&lt;b&gt;POD&lt;/b&gt;" style="ellipse;whiteSpace=wrap;html=1;aspect=fixed;" vertex="1" parent="WIyWlLk6GJQsqaUBKTNV-1">
          <mxGeometry x="920" y="851" width="92" height="92" as="geometry" />
        </mxCell>
        <mxCell id="HDoZhAlOHdr3i28oka9N-33" value="&lt;b&gt;&lt;font style=&quot;font-size: 18px;&quot;&gt;EKS&lt;/font&gt;&lt;/b&gt;" style="text;html=1;align=center;verticalAlign=middle;whiteSpace=wrap;rounded=0;" vertex="1" parent="WIyWlLk6GJQsqaUBKTNV-1">
          <mxGeometry x="795" y="695" width="110" height="34.5" as="geometry" />
        </mxCell>
        <mxCell id="HDoZhAlOHdr3i28oka9N-34" value="&lt;font style=&quot;font-size: 14px;&quot;&gt;&lt;b&gt;EC2&lt;/b&gt;&lt;b&gt;&amp;nbsp;(t2.micro)&lt;/b&gt;&lt;/font&gt;" style="text;html=1;align=center;verticalAlign=middle;whiteSpace=wrap;rounded=0;" vertex="1" parent="WIyWlLk6GJQsqaUBKTNV-1">
          <mxGeometry x="952.5" y="332.5" width="165" height="35" as="geometry" />
        </mxCell>
        <mxCell id="HDoZhAlOHdr3i28oka9N-35" value="" style="endArrow=classic;html=1;rounded=0;exitX=1;exitY=0.5;exitDx=0;exitDy=0;entryX=0;entryY=0.5;entryDx=0;entryDy=0;strokeWidth=2;" edge="1" parent="WIyWlLk6GJQsqaUBKTNV-1" source="HDoZhAlOHdr3i28oka9N-20" target="HDoZhAlOHdr3i28oka9N-31">
          <mxGeometry width="50" height="50" relative="1" as="geometry">
            <mxPoint x="820" y="789.5" as="sourcePoint" />
            <mxPoint x="870" y="739.5" as="targetPoint" />
          </mxGeometry>
        </mxCell>
        <mxCell id="HDoZhAlOHdr3i28oka9N-37" value="" style="endArrow=classic;html=1;rounded=0;exitX=1;exitY=0.5;exitDx=0;exitDy=0;entryX=0;entryY=0.5;entryDx=0;entryDy=0;strokeWidth=2;" edge="1" parent="WIyWlLk6GJQsqaUBKTNV-1" source="HDoZhAlOHdr3i28oka9N-20" target="HDoZhAlOHdr3i28oka9N-32">
          <mxGeometry width="50" height="50" relative="1" as="geometry">
            <mxPoint x="890" y="879.5" as="sourcePoint" />
            <mxPoint x="940" y="829.5" as="targetPoint" />
          </mxGeometry>
        </mxCell>
        <mxCell id="HDoZhAlOHdr3i28oka9N-43" style="edgeStyle=orthogonalEdgeStyle;rounded=0;orthogonalLoop=1;jettySize=auto;html=1;exitX=0.5;exitY=0;exitDx=0;exitDy=0;entryX=0.5;entryY=1;entryDx=0;entryDy=0;strokeWidth=2;startArrow=classic;startFill=1;" edge="1" parent="WIyWlLk6GJQsqaUBKTNV-1" source="HDoZhAlOHdr3i28oka9N-38" target="HDoZhAlOHdr3i28oka9N-69">
          <mxGeometry relative="1" as="geometry">
            <mxPoint x="850" y="460" as="targetPoint" />
            <Array as="points">
              <mxPoint x="496" y="500" />
              <mxPoint x="1035" y="500" />
            </Array>
          </mxGeometry>
        </mxCell>
        <mxCell id="HDoZhAlOHdr3i28oka9N-44" style="edgeStyle=orthogonalEdgeStyle;rounded=0;orthogonalLoop=1;jettySize=auto;html=1;exitX=0.5;exitY=1;exitDx=0;exitDy=0;strokeWidth=2;entryX=0;entryY=0.5;entryDx=0;entryDy=0;" edge="1" parent="WIyWlLk6GJQsqaUBKTNV-1" source="HDoZhAlOHdr3i28oka9N-38" target="HDoZhAlOHdr3i28oka9N-20">
          <mxGeometry relative="1" as="geometry" />
        </mxCell>
        <mxCell id="HDoZhAlOHdr3i28oka9N-38" value="&lt;font style=&quot;font-size: 14px;&quot;&gt;&lt;b&gt;ALB&lt;/b&gt;&lt;/font&gt;" style="ellipse;whiteSpace=wrap;html=1;aspect=fixed;" vertex="1" parent="WIyWlLk6GJQsqaUBKTNV-1">
          <mxGeometry x="440" y="608.75" width="112.5" height="112.5" as="geometry" />
        </mxCell>
        <mxCell id="HDoZhAlOHdr3i28oka9N-58" value="" style="endArrow=classic;startArrow=classic;html=1;rounded=0;exitX=1;exitY=0.5;exitDx=0;exitDy=0;entryX=0;entryY=0.5;entryDx=0;entryDy=0;strokeWidth=3;" edge="1" parent="WIyWlLk6GJQsqaUBKTNV-1" source="HDoZhAlOHdr3i28oka9N-27" target="HDoZhAlOHdr3i28oka9N-16">
          <mxGeometry width="50" height="50" relative="1" as="geometry">
            <mxPoint x="220" y="630" as="sourcePoint" />
            <mxPoint x="250" y="620" as="targetPoint" />
          </mxGeometry>
        </mxCell>
        <mxCell id="HDoZhAlOHdr3i28oka9N-59" value="" style="endArrow=classic;html=1;rounded=0;exitX=1;exitY=0.5;exitDx=0;exitDy=0;entryX=0;entryY=0.5;entryDx=0;entryDy=0;strokeWidth=2;startArrow=classic;startFill=1;endFill=1;" edge="1" parent="WIyWlLk6GJQsqaUBKTNV-1" source="HDoZhAlOHdr3i28oka9N-16" target="HDoZhAlOHdr3i28oka9N-38">
          <mxGeometry width="50" height="50" relative="1" as="geometry">
            <mxPoint x="410" y="600" as="sourcePoint" />
            <mxPoint x="460" y="550" as="targetPoint" />
          </mxGeometry>
        </mxCell>
        <mxCell id="HDoZhAlOHdr3i28oka9N-63" value="&lt;font style=&quot;font-size: 14px;&quot;&gt;&lt;b&gt;EC2&lt;/b&gt;&lt;b&gt;&amp;nbsp;(t3.large)&lt;/b&gt;&lt;/font&gt;" style="text;html=1;align=center;verticalAlign=middle;whiteSpace=wrap;rounded=0;" vertex="1" parent="WIyWlLk6GJQsqaUBKTNV-1">
          <mxGeometry x="767.5" y="635" width="165" height="35" as="geometry" />
        </mxCell>
        <mxCell id="HDoZhAlOHdr3i28oka9N-64" value="" style="rounded=1;whiteSpace=wrap;html=1;" vertex="1" parent="WIyWlLk6GJQsqaUBKTNV-1">
          <mxGeometry x="1160" y="670" width="290" height="335" as="geometry" />
        </mxCell>
        <mxCell id="HDoZhAlOHdr3i28oka9N-65" value="&lt;font style=&quot;font-size: 14px;&quot;&gt;&lt;b&gt;EC2&lt;/b&gt;&lt;b&gt;&amp;nbsp;(t3.large)&lt;/b&gt;&lt;/font&gt;" style="text;html=1;align=center;verticalAlign=middle;whiteSpace=wrap;rounded=0;" vertex="1" parent="WIyWlLk6GJQsqaUBKTNV-1">
          <mxGeometry x="1225" y="635" width="165" height="35" as="geometry" />
        </mxCell>
        <mxCell id="HDoZhAlOHdr3i28oka9N-67" value="&lt;b&gt;&lt;font style=&quot;font-size: 14px;&quot;&gt;Kafka Cluster&lt;br&gt;MySQL Master Slave&lt;br&gt;Redis Sentinel Master Slave&amp;nbsp;&lt;/font&gt;&lt;/b&gt;" style="rounded=0;whiteSpace=wrap;html=1;" vertex="1" parent="WIyWlLk6GJQsqaUBKTNV-1">
          <mxGeometry x="1195" y="729.5" width="225" height="230.5" as="geometry" />
        </mxCell>
        <mxCell id="HDoZhAlOHdr3i28oka9N-68" value="&lt;font style=&quot;font-size: 18px;&quot;&gt;&lt;b&gt;Middleware&lt;/b&gt;&lt;/font&gt;" style="text;html=1;align=center;verticalAlign=middle;whiteSpace=wrap;rounded=0;" vertex="1" parent="WIyWlLk6GJQsqaUBKTNV-1">
          <mxGeometry x="1246.25" y="696.75" width="122.5" height="32.75" as="geometry" />
        </mxCell>
        <mxCell id="HDoZhAlOHdr3i28oka9N-69" value="&lt;b&gt;Bastion Host&lt;/b&gt;" style="rounded=1;whiteSpace=wrap;html=1;" vertex="1" parent="WIyWlLk6GJQsqaUBKTNV-1">
          <mxGeometry x="828.75" y="367.5" width="412.5" height="97.5" as="geometry" />
        </mxCell>
      </root>
    </mxGraphModel>
  </diagram>
</mxfile>
